<?xml version="1.0" encoding="utf-8"?>
<!-- Generator: Adobe Illustrator 17.0.0, SVG Export Plug-In . SVG Version: 6.00 Build 0)  -->
<!DOCTYPE svg PUBLIC "-//W3C//DTD SVG 1.1//EN" "http://www.w3.org/Graphics/SVG/1.1/DTD/svg11.dtd">
<svg version="1.1" id="Layer_1" xmlns="http://www.w3.org/2000/svg" xmlns:xlink="http://www.w3.org/1999/xlink" x="0px" y="0px"
	 width="300px" height="300px" viewBox="0 0 300 300" enable-background="new 0 0 300 300" xml:space="preserve">
<g>
	<path opacity="0.3" fill="#675F5C" d="M271.067,13.59L59.328,25.513c-4.843,0.278-8.575,4.458-8.305,9.297l1.829,32.389
		l-32.389,1.82c-4.843,0.278-8.571,4.454-8.302,9.293l8.678,154.108c0.274,4.839,4.451,8.571,9.293,8.305l88.787-5.005l13.605,9.543
		l63.358,44.439l-3.276-58.131l49.266-2.772c4.843-0.278,8.571-4.454,8.302-9.293l-1.82-32.397l32.389-1.817
		c4.839-0.277,8.575-4.462,8.297-9.293l-8.678-154.112C280.087,17.049,275.906,13.317,271.067,13.59z"/>
	<path fill="#45B28E" d="M284.775,180.724c0,4.847-3.974,8.814-8.809,8.814H63.89c-4.847,0-8.814-3.966-8.814-8.814V26.37
		c0-4.843,3.966-8.809,8.814-8.809h212.076c4.835,0,8.809,3.966,8.809,8.809V180.724z"/>
	<path fill="#5CC1A2" d="M243.525,221.974c0,4.851-3.966,8.805-8.813,8.805H22.636c-4.843,0-8.813-3.955-8.813-8.805V67.62
		c0-4.847,3.97-8.809,8.813-8.809h212.076c4.847,0,8.813,3.962,8.813,8.809V221.974z"/>
	<polygon fill="#5CC1A2" points="63.854,193.154 124.614,145.229 185.371,97.3 185.371,193.154 185.371,289.017 124.614,241.08 	"/>
	<line fill="#FFFFFF" x1="97.368" y1="102.252" x2="195.987" y2="102.252"/>
	<path fill="#FFFFFF" d="M195.987,106.183H97.368c-2.169,0-3.927-1.761-3.927-3.931c0-2.169,1.757-3.93,3.927-3.93h98.619
		c2.173,0,3.931,1.761,3.931,3.93C199.918,104.422,198.161,106.183,195.987,106.183z"/>
	<line fill="#FFFFFF" x1="97.368" y1="141.436" x2="195.987" y2="141.436"/>
	<path fill="#FFFFFF" d="M195.987,145.367H97.368c-2.169,0-3.927-1.757-3.927-3.931c0-2.17,1.757-3.927,3.927-3.927h98.619
		c2.173,0,3.931,1.757,3.931,3.927C199.918,143.609,198.161,145.367,195.987,145.367z"/>
	<line fill="#FFFFFF" x1="97.368" y1="180.615" x2="195.987" y2="180.615"/>
	<path fill="#FFFFFF" d="M195.987,184.546H97.368c-2.169,0-3.927-1.757-3.927-3.931c0-2.17,1.757-3.927,3.927-3.927h98.619
		c2.173,0,3.931,1.757,3.931,3.927C199.918,182.789,198.161,184.546,195.987,184.546z"/>
	<path fill="#FFFFFF" d="M81.753,96.426l-14.338,14.342l-2.693,2.697c-0.365,0.349-0.857,0.555-1.356,0.555
		c-0.488,0-0.984-0.206-1.345-0.555l-2.689-2.697l-7.175-7.171c-0.349-0.357-0.551-0.853-0.551-1.345
		c0-0.496,0.202-0.987,0.551-1.352l2.701-2.685c0.349-0.361,0.849-0.559,1.345-0.559c0.496,0,0.984,0.198,1.344,0.559l5.819,5.838
		L76.359,91.04c0.361-0.353,0.857-0.555,1.357-0.555c0.492,0,0.991,0.202,1.34,0.555l2.697,2.693
		c0.357,0.361,0.555,0.849,0.555,1.348C82.308,95.577,82.11,96.069,81.753,96.426z"/>
	<path fill="#FFFFFF" d="M66.272,155.516c-7.766,0-14.081-6.319-14.081-14.081c0-7.766,6.314-14.076,14.081-14.076
		c7.758,0,14.081,6.31,14.081,14.076C80.353,149.198,74.03,155.516,66.272,155.516z M66.272,132.599
		c-4.875,0-8.841,3.966-8.841,8.837c0,4.879,3.967,8.841,8.841,8.841c4.879,0,8.841-3.962,8.841-8.841
		C75.113,136.565,71.151,132.599,66.272,132.599z"/>
	<path fill="#FFFFFF" d="M66.272,194.7c-7.766,0-14.081-6.319-14.081-14.077c0-7.766,6.314-14.084,14.081-14.084
		c7.758,0,14.081,6.318,14.081,14.084C80.353,188.381,74.03,194.7,66.272,194.7z M66.272,171.782c-4.875,0-8.841,3.966-8.841,8.841
		c0,4.871,3.967,8.841,8.841,8.841c4.879,0,8.841-3.971,8.841-8.841C75.113,175.749,71.151,171.782,66.272,171.782z"/>
</g>
</svg>
